<?xml version="1.0" encoding="UTF-8"?>
<!-- Generator: Adobe Illustrator 19.2.1, SVG Export Plug-In . SVG Version: 6.00 Build 0)  586.7 333.9 -->
<!DOCTYPE svg PUBLIC "-//W3C//DTD SVG 1.1//EN" "http://www.w3.org/Graphics/SVG/1.1/DTD/svg11.dtd">
<svg version="1.1" id="CD_Projekt_RED_logo" xmlns="http://www.w3.org/2000/svg" xmlns:xlink="http://www.w3.org/1999/xlink" x="0px" y="0px" viewBox="-80 10 330 315" style="enable-background:new 0 0 586.7 333.9;" xml:space="preserve" width="200" heigth="200">
<style type="text/css">
	.st0{fill:#DB0D15;}
</style>
<g id="CD_Projekt_S.A._horizontal_1_">
	<g>
		<path class="st0" d="M54.4,293c4.6-5,10.1-10.6,13.4-13.3c-0.9-0.1-2.4-0.3-3.9-0.5c-3.4,3.1-7.7,7.6-11.6,11.8    c-4.9,5.3-9,9.9-9,10c-0.1,0-0.1,0.1-0.2,0.2c-3.2,0.9-8.7,2.4-12.3,3.4c-5.4,1.5-10.2,1.1-10.2,4.6c0,0-5.6,3-4.3,7.4    c0,0,11.2-8.9,20.7-10.4c0,0-5.8,3.8-5.3,8.9c0,0,7.9-11.8,17.1-4.6c0,0-4.1-5.6-2.4-8.6C47.8,300.2,50.9,296.8,54.4,293z     M36.7,154c-0.5,0.2-1,0.3-1.5,0.3c-1.6,0-3.2-1-3.8-2.6c-0.1-0.1-0.1-0.3-0.2-0.5l-1.2,0.4c1,3,4.1,4.6,6.9,3.6    c0.7-0.2,1.3-0.6,1.8-1.1c1.5-1.4,2.1-3.8,1.4-6l-2.8,0.9c0.2,0.4,0.3,0.9,0.3,1.3c0,0.4-0.1,0.8-0.2,1.1l1.3,0.8    c-0.2,0.3-0.5,0.7-0.8,0.9C37.4,153.6,37.1,153.8,36.7,154z M149.3,144.9l-55,13.4c0,0,0,0,0-0.1l0,0.1l107.3-46.5l-88.5,10.8    l47.4-34.6L109.8,108l0,0l7.7-15.4l-36.3,26.1l-0.3-0.6L132.3,6.9L48.6,106l-0.5-54l-30.7,72.2l-1.6-21.3L0.7,158.2l0,0v0    c0,0,2-1.5,4.8-2.3l0,0c0.2-0.1,0.4-0.1,0.7-0.2c0,0,0.1,0,0.1,0c0.2,0,0.4-0.1,0.7-0.1c0,0,0.1,0,0.1,0c0.2,0,0.4-0.1,0.7-0.1    c0,0,0,0,0,0c0.2,0,0.5,0,0.7-0.1c0.1,0,0.1,0,0.1,0c0.2,0,0.5,0,0.7,0c0,0,0,0,0.1,0c0.2,0,0.4,0,0.6,0.1c0,0,0.1,0,0.1,0    c0.2,0,0.5,0.1,0.7,0.1c0.1,0,0.1,0,0.2,0c0.2,0.1,0.5,0.1,0.7,0.2c5.2,1.9,9.6,0,9.6,0s4.9,3.1,4.9,5.8h0c0,0,0,0,0,0    s-6.4,0.4-6.4-2.5c0,0-8.2-2.9-19.7,1.3l24.2,10.4c0-0.1-1.3-4.6,0.1-6.2c0.4-0.5,1.2-0.7,2.4-0.3c0.4,0.2,0.8,0.1,1-0.1    c1.9-1.9-7.2-18.8-7.2-18.8s-8.2-0.8-15.3,6.6c-0.5,0.5-1,1-1.4,1.6v0c0,0,0,0,0,0c0.7-1.3,3-4.9,6.9-8.1c2.3-1.9,5.2-3.7,8.6-4.6    c0.9-2.3-0.2-0.8,1.7-2c0,0,0,0,0,0c0.9-5.9,4.3-21.2,15.9-34.3c0.8-0.9,1.6-1.7,2.4-2.6c0,0-3,5.6-3,9.5c0.1-0.1,3-4.5,7.1-8.5    l0,0v0c0,0,0,0.1-0.1,0.2c-0.8,1.6-6.3,13.4-5.7,16.9c0,0,0,0.1,0,0.1l11.2-10.2c0,0,0,0,0,0c-0.3,0.4-10.5,14.2-11.5,18.9    c0,0,0,0,0,0l16.9-12.1l0,0c-0.1,0.1-2.1,3-3,4.6c-0.6,1.1-0.7,1.5-0.7,1.6l0,0.1l9.1-3.9c0,0-0.4,0.5-1,1.2l-3.4,3.4l-0.8,0.9    l-6.2,6.2l-0.1,0.1l-4.7,4.8l-3,3.1l0,0c0,0-2.5,2.6-2.8,3.9c-0.3,1.3,1.1,2.1,1.1,2.1h0c1.3,0.7,2.3,1.8,2.9,3.1    c0.3,0.8,0.5,1.6,0.5,2.6c0,1.8-0.7,3.4-2,4.6c-1.2,1.2-2.9,1.9-4.8,1.9c-1.7,0-3.2-0.6-4.4-1.6c0.2,0.3,3.5,4.5,9.7,1.2l7.6-5.5    l0.3-0.3l7.8-5.7c1.8,2.2,3.6,4.8,5.2,7.8l0,0c-4.6,4.4-12.6,12.1-20.5,20.4c-4.7,5-9.4,10.2-13.4,15.2l0,0l0,0l2.8-13.3l0,0    l0.2-1.1c0,0,0,0,0,0l0,0c0,0,0,0-0.1,0c0,0,0,0,0,0c0,0-0.1,0-0.1,0.1c0,0,0,0,0,0c0,0-0.1,0-0.1,0.1c0,0,0,0.1-0.1,0.1    c0,0-0.1,0.1-0.1,0.1c0,0,0,0.1-0.1,0.1c0,0-0.1,0.1-0.1,0.1c0,0-0.1,0.1-0.1,0.1c0,0-0.1,0.1-0.1,0.1c0,0.1-0.1,0.1-0.1,0.1    c-0.1,0-0.1,0.1-0.2,0.1c0,0-0.1,0.1-0.1,0.1c-0.1,0.1-0.1,0.1-0.2,0.2c-0.1,0-0.1,0.1-0.2,0.1c0,0.1-0.1,0.1-0.2,0.2    c0,0-0.1,0.1-0.2,0.2c-0.1,0.1-0.2,0.1-0.2,0.2c-0.1,0.1-0.1,0.1-0.2,0.1c-0.1,0.1-0.1,0.2-0.2,0.3c-0.1,0-0.1,0.1-0.1,0.1    c0,0-0.1,0.1-0.2,0.1c0,0,0,0,0,0c-0.1,0.1-0.2,0.2-0.3,0.3c-0.1,0-0.1,0.1-0.2,0.2c-0.1,0.1-0.2,0.2-0.3,0.3    c-0.1,0.1-0.1,0.2-0.2,0.2c-0.1,0.1-0.1,0.2-0.2,0.2c0,0-0.1,0.1-0.1,0.1c0,0,0,0-0.1,0.1c-0.1,0.1-0.1,0.1-0.2,0.2    c-0.1,0.1-0.1,0.2-0.2,0.2c0,0,0,0.1-0.1,0.1c0,0-0.1,0-0.1,0.1c0,0.1-0.1,0.1-0.2,0.2c-0.1,0.1-0.2,0.2-0.3,0.3    c-0.1,0.1-0.2,0.2-0.2,0.3c-0.1,0.1-0.2,0.2-0.3,0.3c-0.1,0.1-0.2,0.2-0.3,0.3c-0.1,0.1-0.2,0.3-0.3,0.4c-0.1,0.1-0.2,0.2-0.3,0.3    c-0.1,0.1-0.2,0.3-0.3,0.4c-0.1,0.1-0.2,0.2-0.3,0.3c-0.1,0.2-0.2,0.3-0.3,0.5c-0.1,0.1-0.2,0.2-0.2,0.3c-0.1,0.2-0.3,0.4-0.4,0.6    c0,0.1-0.1,0.2-0.2,0.2c-0.2,0.3-0.4,0.6-0.6,0.9l0,0c-0.2,0.3-0.4,0.6-0.6,0.9c0,0.1-0.1,0.2-0.2,0.3c-0.1,0.2-0.3,0.4-0.4,0.7    c-0.1,0.1-0.1,0.2-0.2,0.3c-0.1,0.2-0.3,0.4-0.4,0.6c-0.1,0.1-0.1,0.3-0.2,0.4c-0.1,0.2-0.3,0.4-0.4,0.7c-0.1,0.1-0.2,0.3-0.2,0.4    c-0.1,0.2-0.3,0.5-0.4,0.7c-0.1,0.1-0.2,0.3-0.2,0.4c-0.1,0.3-0.3,0.5-0.4,0.7c-0.1,0.1-0.1,0.3-0.2,0.4c-0.6,1.1-1.2,2.3-1.9,3.6    c0,0,0,0,0,0l0,0l0,0l-3.1,0.5c0.6-1.6,1.2-3.1,1.9-4.4l-5.1,7.1l5.1-0.5c-4.3,10-7.5,23-7.5,41.6L11,236    c3.6,20.7,20.8,29.9,20.8,29.9l0-0.1c9.4,6.2,20.9,10.5,33.5,12.2l0,0c1.8,0.2,3.2,0.4,3.5,0.4c0,0,0,0,0,0c0.2,0,0.4,0.1,0.7,0.1    c6.8,0.6,13.5,0.4,19.9-0.6c0,0.2,0,0.5,0,0.7c0,4.1,2.3,7.5,5.2,7.8c-6,10.2-10.8,23.7-10.8,23.7c-0.2,0.6-0.7,1.8-1.2,2.1    c-1.5,0.3-1.6,0.4-3.2,0.9l0,0c-0.5-0.5-5.3-1.4-10.1,0.4l0,0c0,0,0,0,0,0c-2.7,1.2-5.4,3.4-7.2,7c2-1.6,5.6-4.1,8.6-3.8    c-3.5,2-9.6,5.8-10.3,11.3c0,0,21.1-14.8,31.5-12.1c0,0-1.5,1.7,2.1,8.1l1.6-5.9c1.9-5.8-5.4-6.6-8.4-6.7c0,0,0-0.1,0-0.1    c0,0,0.3-0.9,0.9-2.5c1.8-4.6,6-14.8,10.5-22.1c0.1-0.2,0.1-0.3,0.2-0.5l-0.9-1.2c0,0,0.6-0.7,0.9-1.2c0.6-1,1.4-2.6,1.5-4.7    c0-1.7-0.4-3.8-1.6-6.4l0,0l0,0l2.7-1.3c0.1,0.3,0.3,0.7,0.4,1c0,0.1,0.1,0.2,0.1,0.3c0.1,0.2,0.2,0.4,0.2,0.7    c0,0.1,0.1,0.2,0.1,0.3c0.1,0.2,0.1,0.5,0.2,0.7c0,0.1,0.1,0.2,0.1,0.2L118,270l-3.4-2.8l0,0l0,0l0,0h0l-0.1-0.2l-0.1-0.1l0,0    L56,213.9c0,0,0,0,0,0l0,0c16.2,7.9,35.2,17.1,67.3,32c31.6,14.6,51.7,23.1,62,27.3c0.1,0.1,0.2,0.1,0.3,0.1h0    c1.5,0.6,2.8,1.1,3.9,1.6c2.2,0.9,4.3,1.7,4.4,1.7c0.2-0.1,0.4-0.2,0.6-0.2l-118-80.9L149.3,144.9z M67.6,169.9L67.6,169.9    L50,183.3l12.6-27.8l0,0v0C64.6,159.7,66.3,164.6,67.6,169.9L67.6,169.9z M130.4,265.7l0.4,2.1h0l0,0l20.6,12.1l5.2,3l-2.8-7.3    c17,5,30.8,5.3,40,1c0,0,0,0,0,0C177.7,281.3,138.1,267.9,130.4,265.7z"/>
		<path d="M19.7,159.1c0,2.8,6.4,2.5,6.4,2.5c0-2.6-4.9-5.8-4.9-5.8s-4.4,1.9-9.6,0c-2.1-0.8-4.3-0.5-6.1,0.1    C3,157.6,0,160.5,0,160.5C11.5,156.2,19.7,159.1,19.7,159.1z M62.6,155.5L50,183.3l17.6-13.4C66.3,164.6,64.6,159.8,62.6,155.5z     M193.8,276.5c0,0-39.5-14.8-137.9-62.7l58.6,53.4h0l0,0c5.3-2.2,8.9-3.7,16.3,0.5l-0.4-2.1C138.1,267.9,177.9,281.4,193.8,276.5z     M98.7,272.8c1.2,2.6,1.6,4.8,1.6,6.4c0,2.1-0.9,3.8-1.5,4.7c-0.3,0.5-0.9,1.2-0.9,1.2l1.8,2.4c0.2-0.1,3.6-2.7,3.6-8.3    c0-2.2-0.5-4.7-1.9-7.7L98.7,272.8z M63.4,279.2c2.8,0.4,5.3,0.7,5.3,0.7l0.1-1.5c0,0-2.5-0.2-5.2-0.7L63.4,279.2z M61.4,153    c-1.6-3-3.3-5.6-5.2-7.8l-15.7,11.5c-6.3,3.3-9.7-1.2-9.7-1.2c1.2,1,2.7,1.6,4.4,1.6c3.7,0,6.7-2.9,6.7-6.5c0-0.9-0.2-1.8-0.5-2.5    c-0.6-1.3-1.6-2.4-2.9-3.1l0,0c0,0-1.4-0.8-1.1-2.1c0.3-1.3,2.8-3.9,2.8-3.9l0,0l7.7-7.8l0.1-0.1l7-7.1l3.4-3.4    c0.6-0.7,1-1.1,1-1.1l-9.1,3.9c0,0-0.2-0.1,0.7-1.7c0.9-1.6,3-4.6,3-4.6l-17,12.1c1-4.7,11.6-19,11.6-19l-11.2,10.2    c-0.8-3.6,5.8-17.1,5.8-17.1c-4.1,4.1-7.1,8.6-7.1,8.6c0-3.9,3-9.5,3-9.5c-13.6,13.6-17.4,30.6-18.3,36.9c-2,1.2-0.8-0.3-1.7,2    c-9.1,2.6-14.3,10.7-15.5,12.7c7.4-9.1,16.7-8.2,16.7-8.2s11.1,20.5,6.3,18.9c-4.9-1.7-2.5,6.5-2.5,6.5l-9.1-3.9    c1.5,3,4.5,10,2.8,17.2c-1.9,2.8-3.7,6.3-5.4,10.6l3.1-0.5c0.6-1.3,1.2-2.5,1.8-3.6c0.1-0.1,0.2-0.3,0.2-0.4    c0.1-0.2,0.3-0.5,0.4-0.7c0.1-0.1,0.2-0.3,0.2-0.4c0.1-0.2,0.2-0.4,0.4-0.7c0.1-0.2,0.2-0.3,0.2-0.4c0.1-0.2,0.3-0.4,0.4-0.7    c0.1-0.1,0.1-0.3,0.2-0.4c0.1-0.2,0.3-0.4,0.4-0.7c0.1-0.1,0.1-0.2,0.2-0.3c0.1-0.2,0.3-0.4,0.4-0.7c0.1-0.1,0.1-0.2,0.2-0.3    c0.2-0.3,0.4-0.6,0.6-0.9c0,0,0,0,0,0c0.2-0.3,0.4-0.6,0.6-0.9c0.1-0.1,0.1-0.2,0.2-0.2c0.1-0.2,0.3-0.4,0.4-0.6    c0.1-0.1,0.1-0.2,0.2-0.3c0.1-0.2,0.2-0.3,0.3-0.5c0.1-0.1,0.2-0.2,0.2-0.3c0.1-0.1,0.2-0.3,0.3-0.4c0.1-0.1,0.2-0.2,0.3-0.3    c0.1-0.1,0.2-0.3,0.3-0.4c0.1-0.1,0.2-0.2,0.3-0.3c0.1-0.1,0.2-0.2,0.3-0.3c0.1-0.1,0.2-0.2,0.2-0.3c0.1-0.1,0.2-0.2,0.3-0.3    c0.1-0.1,0.2-0.2,0.3-0.3c0.1-0.1,0.2-0.2,0.3-0.3c0.1-0.1,0.1-0.2,0.2-0.2c0.1-0.1,0.2-0.2,0.3-0.3c0.1-0.1,0.2-0.1,0.2-0.2    c0.1-0.1,0.2-0.2,0.3-0.3c0.1-0.1,0.1-0.1,0.2-0.2c0.1-0.1,0.2-0.2,0.3-0.3c0.1,0,0.1-0.1,0.2-0.2c0.1-0.2,0.3-0.3,0.4-0.4    c0.1,0,0.1-0.1,0.2-0.1c0.1-0.1,0.1-0.1,0.2-0.2c0-0.1,0.1-0.1,0.2-0.2c0.1-0.1,0.2-0.1,0.2-0.2c0.1,0,0.1-0.1,0.2-0.1    c0-0.1,0.1-0.1,0.2-0.2c0,0,0.1-0.1,0.1-0.1c0.1,0,0.1-0.1,0.2-0.1c0,0,0.1-0.1,0.1-0.1c0,0,0.1-0.1,0.1-0.1c0,0,0.1-0.1,0.1-0.1    c0.1,0,0.1,0,0.1-0.1c0,0,0.1,0,0.1-0.1c0,0,0.1-0.1,0.1-0.1c0,0,0.1-0.1,0.1-0.1c0,0,0.1,0,0.1-0.1c0,0,0,0,0,0c0,0,0,0,0.1-0.1    c0,0,0,0,0,0c0,0,0,0,0.1,0l0,0c0,0,0,0,0,0l-0.2,1.1l0,0l-2.8,13.3C38.2,175.4,53.9,160,61.4,153z M30,151.6l1.2-0.4    c0,0.2,0.1,0.3,0.2,0.5c0.7,1.6,2.2,2.6,3.8,2.6c0.5,0,1-0.1,1.5-0.3c0.8-0.3,1.5-0.9,1.9-1.6l-1.3-0.8c0.2-0.3,0.2-0.7,0.2-1.2    c0-0.5-0.1-0.9-0.3-1.3l2.8-0.9c1,3-0.4,6.1-3.2,7.1C34,156.2,31,154.6,30,151.6z"/>
	</g>
</g>
</svg>
